<?xml version="1.0" encoding="utf-8"?><!-- Uploaded to: SVG Repo, www.svgrepo.com, Generator: SVG Repo Mixer Tools -->
<svg fill="#000000" width="800px" height="800px" viewBox="0 0 24 24" id="timer-3-second" data-name="Flat Color" xmlns="http://www.w3.org/2000/svg" class="icon flat-color"><path id="secondary" d="M17.3,9.2a1,1,0,0,1-.7-.3,1,1,0,0,1,0-1.41L18.09,6a1,1,0,1,1,1.42,1.42L18,8.9A1,1,0,0,1,17.3,9.2ZM6.7,9.2A1,1,0,0,1,6,8.9L4.49,7.41A1,1,0,0,1,5.91,6L7.4,7.49a1,1,0,0,1,0,1.41A1,1,0,0,1,6.7,9.2ZM12,7a1,1,0,0,1-1-1V4H9A1,1,0,0,1,9,2h6a1,1,0,0,1,0,2H13V6A1,1,0,0,1,12,7Z" style="fill: rgb(44, 169, 188);"></path><circle id="primary" cx="12" cy="13.5" r="8.5" style="fill: rgb(0, 0, 0);"></circle><path id="secondary-2" data-name="secondary" d="M14,15H12a1,1,0,0,1-1-1V10a1,1,0,0,1,2,0v3h1a1,1,0,0,1,0,2Z" style="fill: rgb(44, 169, 188);"></path></svg>